<?xml version="1.0" encoding="UTF-8"?>
<svg width="100px" height="100px" viewBox="0 0 100 100" version="1.1" xmlns="http://www.w3.org/2000/svg" xmlns:xlink="http://www.w3.org/1999/xlink">
    <title>Anchor</title>
    <g id="Anchor" stroke="none" stroke-width="1" fill="none" fill-rule="evenodd">
        <path d="M50,5 C56.0751322,5 61,9.92486775 61,16 C61,20.6635998 58.0978112,24.6493572 54.0009621,26.2497436 L54,35 L74,35 L74,40 L54,40 L54,60 C54,95 90,70 75,70 C65.4991745,70 86.2609253,50 90,50 C90,90 60,80 50,95 C40,80 10,90 10,50 C14.2494415,50 33,70 25,70 C10,70 46,95 46,60 L46,60 L46,40 L26,40 L26,35 L46,35 L46.0000384,26.2501344 C41.9026613,24.6500061 39,20.6639795 39,16 C39,9.92486775 43.9248678,5 50,5 Z M50,10 C46.6862915,10 44,12.6862915 44,16 C44,19.3137085 46.6862915,22 50,22 C53.3137085,22 56,19.3137085 56,16 C56,12.6862915 53.3137085,10 50,10 Z" id="anchor" fill="#FFFFFF"></path>
    </g>
</svg>