<?xml version="1.0" encoding="UTF-8"?>
<svg width="100px" height="100px" viewBox="0 0 100 100" version="1.1" xmlns="http://www.w3.org/2000/svg" xmlns:xlink="http://www.w3.org/1999/xlink">
    <title>Captain</title>
    <g id="Captain" stroke="none" stroke-width="1" fill="none" fill-rule="evenodd">
        <path d="M50,64.0410959 C75.3333333,64.0410959 86.5098039,73.0273973 83.5294118,91 L16.4705882,91 C13.4901961,73.0273973 24.6666667,64.0410959 50,64.0410959 Z M50,9 C62.3451885,9 72.3529412,16.8630137 72.3529412,22.4794521 C72.3529412,24.143472 71.355038,26.0408345 69.7867054,27.8396265 L69.5588235,28.0958904 L67.8823529,35.9589041 L67.8799086,36.2608178 C67.7204207,46.1595256 59.7763917,59.5479452 50,59.5479452 C40.2236083,59.5479452 32.2795793,46.1595256 32.1200914,36.2608178 L32.1176471,35.9589041 L30.4450379,28.0958904 C28.6623343,26.1778374 27.6470588,24.2683463 27.6470588,22.4794521 C27.6470588,16.8630137 37.6548115,9 50,9 Z M68,28.3 L32,28.3 C38,33.4333333 44,36 50,36 C56,36 62,33.4333333 68,28.3 L68,28.3 Z M53.9663656,21.5260747 L53.8788189,21.7681035 C53.2699959,23.3556508 52.2268845,24.2183173 50.6893765,24.4091785 L50.562,24.422 L50.5625,25 L49.4375,25 L49.437,24.422 L49.3349062,24.4121322 C47.7781952,24.2266625 46.7252196,23.357419 46.1142189,21.7498677 L46.0336344,21.5260747 L44.9663656,21.8739253 L45.0581725,22.1288238 C45.9148846,24.382704 47.5926294,25.55 50,25.55 C52.4965325,25.55 54.2083919,24.2946364 55.0336344,21.8739253 L55.0336344,21.8739253 L53.9663656,21.5260747 Z M50.562,20.6 L49.437,20.6 L49.437,24.422 L49.550313,24.4331903 C49.6960069,24.4444104 49.8458871,24.45 50,24.45 C50.1599991,24.45 50.3154361,24.4439753 50.4663627,24.4318801 L50.562,24.422 L50.562,20.6 Z M49.437,19.5 L47.75,19.5 L47.75,20.6 L49.437,20.6 L49.437,19.5 Z M52.25,19.5 L50.562,19.5 L50.562,20.6 L52.25,20.6 L52.25,19.5 Z M50,14 C48.7573593,14 47.75,14.9849736 47.75,16.2 C47.75,17.2037175 48.4374418,18.0504424 49.3770757,18.3145972 L49.437,18.329 L49.437,19.5 L50.562,19.5 L50.562,18.329 L50.6229243,18.3145972 C51.5131038,18.0643453 52.1769391,17.2912327 52.2443506,16.357115 L52.25,16.2 C52.25,14.9849736 51.2426407,14 50,14 Z M50.5625,17.3 L50.562,18.329 L50.4725287,18.3514025 C50.3201642,18.3832424 50.1620836,18.4 50,18.4 C49.8379164,18.4 49.6798358,18.3832424 49.5274713,18.3514025 L49.437,18.329 L49.4375,17.3 L50.5625,17.3 Z M50,15.1 C50.6213203,15.1 51.125,15.5924868 51.125,16.2 C51.125,16.8075132 50.6213203,17.3 50,17.3 C49.3786797,17.3 48.875,16.8075132 48.875,16.2 C48.875,15.5924868 49.3786797,15.1 50,15.1 Z" id="captain" fill="#D8D8D8"></path>
    </g>
</svg>