<?xml version="1.0" encoding="UTF-8"?>
<svg viewBox="0 0 100 100" version="1.1" xmlns="http://www.w3.org/2000/svg" xmlns:xlink="http://www.w3.org/1999/xlink">
    <title>Pencil</title>
    <g id="Pencil" stroke="none" stroke-width="1" fill="none" fill-rule="evenodd">
        <path d="M78.199456,26.6325632 L78.2843963,26.7154267 L78.3525341,26.7849083 C79.3017366,27.7753614 79.0144061,28.5920353 70.1803022,37.0493251 C73.7488715,40.984324 76.5875792,46.3757168 76.9588201,53.422807 C79.1252762,53.3757217 80.9328021,53.3485983 82.4404271,53.3435729 L83.4699371,53.3437799 C89.5666571,53.3689239 89.9872171,53.8425159 90.0000971,54.9401719 L90.0004271,54.9995729 C90.0004271,56.1595729 89.6640271,56.6467729 83.1378671,56.6562849 L82.4404271,56.6555729 C80.9316358,56.6505436 79.1224793,56.6233821 76.9533276,56.5760761 C76.5952828,62.6542364 74.1793864,68.4548064 70.2066167,72.9765847 C79.0151798,81.4098289 79.3007805,82.2256877 78.352468,83.2151606 L78.2843963,83.2845733 C77.4782946,84.090675 76.9019319,84.2075598 72.4958201,79.837642 L71.7677003,79.1098148 C70.7149696,78.0500425 69.4693977,76.7667497 67.9887032,75.2203828 C63.7056588,79.070204 58.0912607,81.6037654 51.5774466,81.9574192 C51.6267792,84.2274973 51.6540661,86.1031646 51.6570223,87.6528152 L51.6569859,88.2187858 C51.6437444,94.3711241 51.1988524,94.9566211 50.1545293,94.9973457 L50.059401,94.99967 L50.059401,94.99967 L49.940599,94.99967 C48.5378631,94.9832102 48.1543015,94.3009581 48.4233979,81.9574321 C41.9087393,81.6037654 36.2943412,79.070204 32.0110547,75.2201265 C30.5304551,76.766555 29.2851127,78.0496075 28.2325499,79.1092108 L27.7398889,79.6028788 C23.3660468,83.9639895 22.6100865,84.1021075 21.8462883,83.409035 L21.7595923,83.3272054 L21.7595923,83.3272054 L21.7158539,83.2839692 C20.9097521,82.4778675 20.7928674,81.9015048 25.1627852,77.495393 L25.8906123,76.7672731 C26.9534203,75.711527 28.2410311,74.4618333 29.7933392,72.9755463 C25.8206136,68.4548064 23.4047172,62.6542364 23.0464577,56.576402 C20.8778156,56.6233905 19.0689852,56.6505443 17.5604271,56.6555729 L16.8629871,56.6562849 C10.4493471,56.6469369 10.0138671,56.1762309 10.0007571,55.0589739 L10.0004271,54.9995729 C10.0004271,53.8595729 10.3253271,53.3693729 16.5309171,53.3437799 L17.5604271,53.3435729 C19.0680521,53.3485983 20.8755781,53.3757217 23.0424968,53.4229599 C23.41646,46.4175858 26.2649524,41.0228947 29.8464552,37.0735183 C28.2699009,35.5661833 26.9653233,34.300297 25.8906123,33.2327269 L25.1627852,32.504607 C20.8695326,28.1757954 20.9070319,27.5435345 21.6740843,26.758267 L21.7158539,26.7160308 C22.7434146,25.68847 23.397665,25.7808403 32.0872153,34.8592609 C36.8970844,30.5978334 42.3149783,28.5900967 44.8328612,28.5029683 L45,28.5 L45,32.5 C43.258528,32.5 38.8441618,34.1595377 34.8231081,37.732298 C37.7111042,40.7798372 41.2946463,44.5926846 45.7574844,49.3434478 L44.3432709,50.7576613 C43.4471621,51.9476247 43,53.3620219 43,55 C43,56.3658197 43.4145474,57.9389131 44.3380085,59.2474494 L44.3432709,59.2423387 L45.7574844,60.6565522 L45.7304371,60.6860991 C46.7982045,61.4850474 48.205995,62 50,62 C51.794005,62 53.2017955,61.4850474 54.2695629,60.6860991 L54.2427658,60.6571563 L55.6569794,59.2429427 C56.5854526,57.9389131 57,56.3658197 57,55 C57,53.4444444 56.5967078,52.090535 55.7901235,50.9382716 L55.6569794,50.7570573 L54.2427658,49.3428437 C58.6911642,44.6074519 62.2659473,40.8039164 65.1503118,37.7608595 C61.2481036,34.2829116 56.9802766,32.5879725 55.1401764,32.5033392 L55,32.5 L55,28.5 C57.3932457,28.5 62.9863891,30.4648829 67.9338968,34.8361091 C69.4385801,33.265005 70.7019588,31.9630553 71.7677003,30.8901852 L72.4958201,30.162358 C76.745926,25.9471646 77.4326793,25.9066728 78.199456,26.6325632 Z M56.751685,63.3275497 L56.6364483,63.4262759 C55.0653135,64.7410463 53.1700874,65.675446 51.1217703,65.9302241 C51.269652,70.6711391 51.3896726,74.6385087 51.4784268,77.9595859 C57.0292903,77.6441595 61.7275385,75.5673662 65.3045882,72.401953 C62.9524291,69.9212536 60.1354542,66.9282804 56.751685,63.3275497 Z M43.0821954,63.5033996 L42.6780901,63.9339516 C39.6246095,67.182695 37.0457447,69.9218522 34.862175,72.2256263 C38.4182135,75.4302393 43.0571124,77.6185411 48.5215958,77.9548143 C48.6103431,74.6383083 48.7302051,70.6759087 48.8770871,65.9435891 C46.7054707,65.7132729 44.705847,64.8326986 43.0821954,63.5033996 Z M60.920193,56.1217463 L60.9075174,56.2058733 C60.6217016,58.108188 59.6881226,60.0719852 58.3125884,61.7371011 C61.9136059,65.121995 64.9074917,67.9397954 67.3891046,70.2928251 C70.6748233,66.4860377 72.6375143,61.6128469 72.9544934,56.4766863 C69.6309878,56.389015 65.661736,56.268925 60.920193,56.1217463 Z M39.0586059,56.1217703 L38.5054952,56.1395836 C34.0203785,56.2785467 30.240213,56.3924616 27.0543248,56.4776392 C27.4001581,61.3028644 29.4255227,66.20877 32.7974543,70.1155709 C35.1972967,67.8410986 38.0692265,65.1379142 41.4964554,61.9170532 C40.1670982,60.2939047 39.2864578,58.2939178 39.0586059,56.1217703 Z M32.7314656,39.8218484 L32.5474744,40.0320227 C29.6762337,43.341471 27.3838155,47.7997761 27.0435988,53.5205655 C30.3608704,53.6098818 34.3219466,53.7297001 39.0524758,53.8765246 C39.2572018,51.7122848 40.0648437,49.7740495 41.4751898,48.0618282 C38.0256116,44.8210789 35.1397781,42.1047276 32.7314656,39.8218484 Z M67.2385755,39.8506388 L67.1064524,39.9750931 C64.7311437,42.2258537 61.8976362,44.8928408 58.5261702,48.0613147 C59.9351563,49.7740495 60.7427982,51.7122848 60.9477361,53.8765342 C65.6773864,53.7297469 69.6381418,53.6099367 72.954604,53.5212907 C72.6042292,47.7192242 70.2075384,43.1926263 67.2385755,39.8506388 Z M53,46 L50,53 L47,46 L53,46 Z M53,11 L53,44 L47,44 L47,11 L53,11 Z M50,5 C51.6568542,5 53,6.34314575 53,8 L53,9 L47,9 L47,8 C47,6.34314575 48.3431458,5 50,5 Z" id="pencil_and_wheel" fill="#FFFFFF" fill-rule="nonzero"></path>
    </g>
</svg>